<svg xmlns="http://www.w3.org/2000/svg" version="1.1" xmlns:xlink="http://www.w3.org/1999/xlink" xmlns:svgjs="http://svgjs.dev/svgjs" viewBox="0 0 800 800"><defs><linearGradient x1="50%" y1="0%" x2="50%" y2="100%" id="ffflurry-grad" gradientTransform="rotate(270)"><stop stop-color="#210535" stop-opacity="1" offset="0%"></stop><stop stop-color="#c874b2" stop-opacity="1" offset="45%"></stop><stop stop-color="#f5d5e0" stop-opacity="1" offset="100%"></stop></linearGradient></defs><rect width="100%" height="100%" fill="#210535"></rect><g fill="url(#ffflurry-grad)"><rect width="237" height="1" x="413.5" y="346.5" rx="0.5" transform="rotate(43, 532, 347)" opacity="0.32"></rect><rect width="67" height="1" x="364.5" y="762.5" rx="0.5" transform="rotate(43, 398, 763)" opacity="0.28"></rect><rect width="256" height="1" x="285" y="339.5" rx="0.5" transform="rotate(43, 413, 340)" opacity="0.25"></rect><rect width="404" height="1" x="316" y="56.5" rx="0.5" transform="rotate(43, 518, 57)" opacity="0.29"></rect><rect width="1025" height="1" x="-325.5" y="311.5" rx="0.5" transform="rotate(43, 187, 312)" opacity="0.79"></rect><rect width="720" height="1" x="386" y="47.5" rx="0.5" transform="rotate(43, 746, 48)" opacity="0.88"></rect><rect width="640" height="1" x="270" y="164.5" rx="0.5" transform="rotate(43, 590, 165)" opacity="0.63"></rect><rect width="108" height="1" x="38" y="509.5" rx="0.5" transform="rotate(43, 92, 510)" opacity="0.95"></rect><rect width="395" height="1" x="-154.5" y="687.5" rx="0.5" transform="rotate(43, 43, 688)" opacity="0.60"></rect><rect width="1011" height="1" x="-260.5" y="595.5" rx="0.5" transform="rotate(43, 245, 596)" opacity="0.86"></rect><rect width="368" height="1" x="90" y="731.5" rx="0.5" transform="rotate(43, 274, 732)" opacity="0.35"></rect><rect width="643" height="1" x="-166.5" y="187.5" rx="0.5" transform="rotate(43, 155, 188)" opacity="0.88"></rect><rect width="487" height="1" x="304.5" y="755.5" rx="0.5" transform="rotate(43, 548, 756)" opacity="0.67"></rect><rect width="289" height="1" x="264.5" y="36.5" rx="0.5" transform="rotate(43, 409, 37)" opacity="0.37"></rect><rect width="468" height="1" x="89" y="108.5" rx="0.5" transform="rotate(43, 323, 109)" opacity="0.68"></rect><rect width="539" height="1" x="342.5" y="456.5" rx="0.5" transform="rotate(43, 612, 457)" opacity="0.41"></rect><rect width="923" height="1" x="-339.5" y="617.5" rx="0.5" transform="rotate(43, 122, 618)" opacity="0.87"></rect><rect width="999" height="1" x="132.5" y="57.5" rx="0.5" transform="rotate(43, 632, 58)" opacity="0.33"></rect><rect width="346" height="1" x="147" y="31.5" rx="0.5" transform="rotate(43, 320, 32)" opacity="0.45"></rect><rect width="119" height="1" x="377.5" y="108.5" rx="0.5" transform="rotate(43, 437, 109)" opacity="0.33"></rect><rect width="787" height="1" x="-14.5" y="182.5" rx="0.5" transform="rotate(43, 379, 183)" opacity="0.13"></rect><rect width="621" height="1" x="198.5" y="526.5" rx="0.5" transform="rotate(43, 509, 527)" opacity="0.38"></rect><rect width="286" height="1" x="-59" y="392.5" rx="0.5" transform="rotate(43, 84, 393)" opacity="0.71"></rect><rect width="992" height="1" x="228" y="346.5" rx="0.5" transform="rotate(43, 724, 347)" opacity="0.45"></rect><rect width="833" height="1" x="209.5" y="679.5" rx="0.5" transform="rotate(43, 626, 680)" opacity="0.15"></rect><rect width="975" height="1" x="-439.5" y="214.5" rx="0.5" transform="rotate(43, 48, 215)" opacity="0.79"></rect><rect width="913" height="1" x="-374.5" y="61.5" rx="0.5" transform="rotate(43, 82, 62)" opacity="0.53"></rect><rect width="295" height="1" x="108.5" y="172.5" rx="0.5" transform="rotate(43, 256, 173)" opacity="0.88"></rect><rect width="838" height="1" x="-99" y="286.5" rx="0.5" transform="rotate(43, 320, 287)" opacity="0.35"></rect><rect width="103" height="1" x="353.5" y="630.5" rx="0.5" transform="rotate(43, 405, 631)" opacity="0.17"></rect><rect width="352" height="1" x="-147" y="592.5" rx="0.5" transform="rotate(43, 29, 593)" opacity="0.38"></rect><rect width="666" height="1" x="-63" y="446.5" rx="0.5" transform="rotate(43, 270, 447)" opacity="0.23"></rect><rect width="443" height="1" x="333.5" y="613.5" rx="0.5" transform="rotate(43, 555, 614)" opacity="0.72"></rect><rect width="325" height="1" x="568.5" y="173.5" rx="0.5" transform="rotate(43, 731, 174)" opacity="0.72"></rect><rect width="114" height="1" x="672" y="555.5" rx="0.5" transform="rotate(43, 729, 556)" opacity="0.64"></rect><rect width="888" height="1" x="-69" y="547.5" rx="0.5" transform="rotate(43, 375, 548)" opacity="0.49"></rect><rect width="770" height="1" x="43" y="443.5" rx="0.5" transform="rotate(43, 428, 444)" opacity="0.56"></rect><rect width="555" height="1" x="-59.5" y="54.5" rx="0.5" transform="rotate(43, 218, 55)" opacity="0.35"></rect><rect width="541" height="1" x="168.5" y="697.5" rx="0.5" transform="rotate(43, 439, 698)" opacity="0.20"></rect><rect width="123" height="1" x="-9.5" y="764.5" rx="0.5" transform="rotate(43, 52, 765)" opacity="0.69"></rect><rect width="651" height="1" x="-173.5" y="730.5" rx="0.5" transform="rotate(43, 152, 731)" opacity="0.70"></rect><rect width="761" height="1" x="212.5" y="263.5" rx="0.5" transform="rotate(43, 593, 264)" opacity="0.92"></rect><rect width="377" height="1" x="540.5" y="731.5" rx="0.5" transform="rotate(43, 729, 732)" opacity="0.73"></rect><rect width="338" height="1" x="301" y="212.5" rx="0.5" transform="rotate(43, 470, 213)" opacity="0.84"></rect></g></svg>