<svg xmlns="http://www.w3.org/2000/svg" version="1.1" xmlns:xlink="http://www.w3.org/1999/xlink" xmlns:svgjs="http://svgjs.dev/svgjs" viewBox="0 0 800 800" opacity="0.97"><defs><symbol id="bbburst-shape-5" viewBox="0 0 145 145"><circle cx="72.5" cy="72.5" r="72.5"></circle></symbol><symbol id="bbburst-shape-10" viewBox="0 0 145 145"><circle cx="72.5" cy="72.5" r="61.5" fill="none" stroke-width="22"></circle></symbol></defs><use xlink:href="#bbburst-shape-5" width="9.788621237782706" opacity="0.8776132121615055" transform="matrix(0.9591194590526149,0.2830015252019315,-0.2830015252019315,0.9591194590526149,467.0849093037664,-21.329066172919)" fill="#f5d5e0"></use><use xlink:href="#bbburst-shape-5" width="10.916361654452276" opacity="0.8482680052033471" transform="matrix(0.9999999272820698,-0.00038136053163812834,0.00038136053163812834,0.9999999272820698,331.0296169888498,25.45073068672275)" fill="#c874b2"></use><use xlink:href="#bbburst-shape-10" width="34.56957462505396" opacity="0.12739259543197046" transform="matrix(0.764334475033537,0.6448199828442102,-0.6448199828442102,0.764334475033537,1005.0916981788506,-72.83498309878087)" fill="none" stroke="#f5d5e0"></use><use xlink:href="#bbburst-shape-10" width="16.738642587182213" opacity="0.6967846497778507" transform="matrix(0.9797256158351487,-0.2003439983539276,0.2003439983539276,0.9797256158351487,373.4811037171037,131.42634570692633)" fill="none" stroke="#f5d5e0"></use><use xlink:href="#bbburst-shape-5" width="34.76906363853742" opacity="0.15587292415126752" transform="matrix(0.8080882202154638,0.5890614809584853,-0.5890614809584853,0.8080882202154638,982.276852644015,185.6317504434058)" fill="#c874b2"></use><use xlink:href="#bbburst-shape-10" width="27.524670985661768" opacity="0.047194717846121836" transform="matrix(0.9963524422450014,0.08533352701266497,-0.08533352701266497,0.9963524422450014,785.1661165203653,225.66956144582656)" fill="none" stroke="#c874b2"></use><use xlink:href="#bbburst-shape-10" width="19.405110082704926" opacity="0.6165393394706852" transform="matrix(0.9541605231069432,-0.29929533264701014,0.29929533264701014,0.9541605231069432,442.5813813339739,39.78997534361025)" fill="none" stroke="#c874b2"></use><use xlink:href="#bbburst-shape-5" width="18.372698129206025" opacity="0.5601109502831346" transform="matrix(0.9394272640605689,-0.3427483268225744,0.3427483268225744,0.9394272640605689,428.9286289757443,-65.78270193472673)" fill="#c874b2"></use><use xlink:href="#bbburst-shape-5" width="9.37152633306031" opacity="0.799692998087747" transform="matrix(0.9706252631869405,0.2405963392557802,-0.2405963392557802,0.9706252631869405,472.22196078162915,98.63311605607714)" fill="#c874b2"></use><use xlink:href="#bbburst-shape-5" width="47.83254925800348" opacity="-0.08301612921514967" transform="matrix(0.9999200270490428,0.012646719188848087,-0.012646719188848087,0.9999200270490428,726.5185722974312,343.58086662883096)" fill="#c874b2"></use><use xlink:href="#bbburst-shape-5" width="8.651751169906479" opacity="0.9412876746694205" transform="matrix(0.9997797023338858,-0.020989206777930283,0.020989206777930283,0.9997797023338858,389.91477180540727,26.46769783285987)" fill="#f5d5e0"></use><use xlink:href="#bbburst-shape-10" width="15.42234831536194" opacity="0.7762360816974968" transform="matrix(0.953040031715744,0.3028443460711353,-0.3028443460711353,0.953040031715744,414.1831786071706,31.21262930388656)" fill="none" stroke="#430d4b"></use><use xlink:href="#bbburst-shape-10" width="46.87917564720166" opacity="0.06715729686668714" transform="matrix(0.9608778768430484,0.27697239175339405,-0.27697239175339405,0.9608778768430484,127.15073704676412,223.18965443739734)" fill="none" stroke="#c874b2"></use><use xlink:href="#bbburst-shape-5" width="13.833103358216905" opacity="0.768432255471334" transform="matrix(0.9876895408035408,0.15642688703445706,-0.15642688703445706,0.9876895408035408,494.42101430484763,-92.91782515379339)" fill="#f5d5e0"></use><use xlink:href="#bbburst-shape-5" width="10.149953356689878" opacity="0.8442862518898852" transform="matrix(0.7506739151291623,0.6606728942106338,-0.6606728942106338,0.7506739151291623,688.6746896019495,160.51700448315597)" fill="#f5d5e0"></use><use xlink:href="#bbburst-shape-5" width="9.081731401524817" opacity="0.8840365202610482" transform="matrix(0.9963240957849991,0.08566385561135934,-0.08566385561135934,0.9963240957849991,393.036475378982,38.17416714170622)" fill="#430d4b"></use><use xlink:href="#bbburst-shape-5" width="11.285907932772936" opacity="0.8331822721968707" transform="matrix(0.8540985071900699,0.5201112765704029,-0.5201112765704029,0.8540985071900699,677.6350589071627,65.34157381002723)" fill="#c874b2"></use><use xlink:href="#bbburst-shape-10" width="9.966033330039505" opacity="0.8447380917741815" transform="matrix(0.7197241090028482,-0.6942601867600189,0.6942601867600189,0.7197241090028482,134.00985250131197,47.39789341745768)" fill="none" stroke="#c874b2"></use><use xlink:href="#bbburst-shape-5" width="15.64065588641348" opacity="0.6644301168559088" transform="matrix(0.7965259687973105,0.6046043177413686,-0.6046043177413686,0.7965259687973105,771.8638563877801,11.5572752502286)" fill="#f5d5e0"></use><use xlink:href="#bbburst-shape-10" width="19.098564826401716" opacity="0.5906187527012992" transform="matrix(0.9109880409177817,-0.4124327694361615,0.4124327694361615,0.9109880409177817,228.24075131840456,223.75485448319597)" fill="none" stroke="#f5d5e0"></use><use xlink:href="#bbburst-shape-5" width="7.5106079630947535" opacity="0.9355085179954529" transform="matrix(0.7354027880638394,-0.6776302378937438,0.6776302378937438,0.7354027880638394,106.68531024710535,129.87642319890227)" fill="#7b337d"></use><use xlink:href="#bbburst-shape-10" width="21.06032780560519" opacity="0.5589912749313725" transform="matrix(0.7633499940565505,-0.6459851287559678,0.6459851287559678,0.7633499940565505,327.5434876880477,59.54124243204046)" fill="none" stroke="#430d4b"></use><use xlink:href="#bbburst-shape-5" width="17.30304536284699" opacity="0.7778031964218062" transform="matrix(0.895479729214245,0.4451022967435492,-0.4451022967435492,0.895479729214245,473.96572260161986,11.149884579655122)" fill="#f5d5e0"></use><use xlink:href="#bbburst-shape-10" width="9.982497813947171" opacity="0.8435697099189037" transform="matrix(0.9999599021947343,0.008955110423519165,-0.008955110423519165,0.9999599021947343,371.132263778895,64.78863405774763)" fill="none" stroke="#7b337d"></use><use xlink:href="#bbburst-shape-10" width="21.700875773783373" opacity="0.44457001212480163" transform="matrix(0.727916147162959,0.685666159803321,-0.685666159803321,0.727916147162959,621.6172850878952,-144.51090565874807)" fill="none" stroke="#c874b2"></use><use xlink:href="#bbburst-shape-5" width="33.22438814143152" opacity="0.44261411143053986" transform="matrix(0.8853089280405153,0.4650033353985256,-0.4650033353985256,0.8853089280405153,782.452670490846,173.52042064917202)" fill="#7b337d"></use><use xlink:href="#bbburst-shape-10" width="9.4715087922123" opacity="0.8381334320587943" transform="matrix(0.8935282660356818,0.4490069462661661,-0.4490069462661661,0.8935282660356818,537.0692184176302,-21.494239659551226)" fill="none" stroke="#c874b2"></use><use xlink:href="#bbburst-shape-10" width="8.667498801550781" opacity="0.8750517574566047" transform="matrix(0.963783880605846,-0.26668451676904004,0.26668451676904004,0.963783880605846,344.8672465438469,8.09475017435551)" fill="none" stroke="#f5d5e0"></use><use xlink:href="#bbburst-shape-5" width="11.660658634512057" opacity="0.786973515022839" transform="matrix(0.7612371017237908,0.6484736501656508,-0.6484736501656508,0.7612371017237908,569.7243921671918,135.6094283424028)" fill="#430d4b"></use><use xlink:href="#bbburst-shape-10" width="23.218798660706916" opacity="0.3036462055906298" transform="matrix(0.8693096167462916,0.49426793364774907,-0.49426793364774907,0.8693096167462916,536.6173788796241,-262.64355613873647)" fill="none" stroke="#7b337d"></use><use xlink:href="#bbburst-shape-10" width="21.55643700648659" opacity="0.6107595837876523" transform="matrix(0.8376834606936234,0.5461560396812936,-0.5461560396812936,0.8376834606936234,449.8239898199487,-13.106566578181116)" fill="none" stroke="#c874b2"></use><use xlink:href="#bbburst-shape-10" width="18.810005068596787" opacity="0.7078247217551707" transform="matrix(0.9816967352924125,0.19045083333033475,-0.19045083333033475,0.9816967352924125,360.7847505717277,-72.033859955129)" fill="none" stroke="#c874b2"></use><use xlink:href="#bbburst-shape-10" width="27.532742973115987" opacity="0.3483771101633646" transform="matrix(0.9399721743284934,0.3412510974167912,-0.3412510974167912,0.9399721743284934,555.9910697781976,-272.1180572968676)" fill="none" stroke="#f5d5e0"></use><use xlink:href="#bbburst-shape-10" width="10.50221403948703" opacity="0.9010324329189477" transform="matrix(0.9278873562875545,0.37286063621907434,-0.37286063621907434,0.9278873562875545,501.2949762699765,38.565860978702574)" fill="none" stroke="#f5d5e0"></use><use xlink:href="#bbburst-shape-5" width="31.40631117282865" opacity="0.31879109809719075" transform="matrix(0.9923150710164528,-0.12373681680733616,0.12373681680733616,0.9923150710164528,122.39473729769276,225.92662543005497)" fill="#f5d5e0"></use><use xlink:href="#bbburst-shape-5" width="11.492642526902916" opacity="0.8183043195969995" transform="matrix(0.7735908430986634,0.6336854168070298,-0.6336854168070298,0.7735908430986634,728.9010843412243,69.44008032943975)" fill="#c874b2"></use><use xlink:href="#bbburst-shape-5" width="12.13596272793002" opacity="0.7794090903516515" transform="matrix(0.9978609106709689,0.06537279980928348,-0.06537279980928348,0.9978609106709689,515.9062192905634,26.415813367742373)" fill="#7b337d"></use><use xlink:href="#bbburst-shape-5" width="32.17857740179062" opacity="0.30820871367470104" transform="matrix(0.9749667581787353,0.22235066999325045,-0.22235066999325045,0.9749667581787353,165.1749712287261,51.14544789471785)" fill="#7b337d"></use><use xlink:href="#bbburst-shape-10" width="7.1784165815003735" opacity="0.9079971900871087" transform="matrix(0.9943981194322684,0.10569947998721693,-0.10569947998721693,0.9943981194322684,469.6579071610504,29.36290827723485)" fill="none" stroke="#f5d5e0"></use><use xlink:href="#bbburst-shape-5" width="23.317166782335793" opacity="0.5832289137675988" transform="matrix(0.9966021931259049,-0.08236545790946939,0.08236545790946939,0.9966021931259049,415.80144919284254,-175.24678034172837)" fill="#f5d5e0"></use><use xlink:href="#bbburst-shape-5" width="9.183338872677869" opacity="0.8761425999286085" transform="matrix(0.7829957516243631,-0.622027051612869,0.622027051612869,0.7829957516243631,199.37157058105004,110.28689408166866)" fill="#f5d5e0"></use><use xlink:href="#bbburst-shape-10" width="31.812001027183776" opacity="0.44175514743239974" transform="matrix(0.9010753587064271,-0.43366253923077536,0.43366253923077536,0.9010753587064271,85.79824344722107,263.5587461127333)" fill="none" stroke="#c874b2"></use><use xlink:href="#bbburst-shape-10" width="24.067721740586755" opacity="0.12065974452297235" transform="matrix(0.9009677629305923,0.43388603360772504,-0.43388603360772504,0.9009677629305923,717.603164606078,-329.7372150940392)" fill="none" stroke="#430d4b"></use><use xlink:href="#bbburst-shape-5" width="26.718072655002885" opacity="0.4229686903854776" transform="matrix(0.7596814696682739,0.6502953672314232,-0.6502953672314232,0.7596814696682739,517.2074783946548,-135.71833165471236)" fill="#7b337d"></use><use xlink:href="#bbburst-shape-10" width="28.72236000644009" opacity="0.15485372907308137" transform="matrix(0.9056802886404427,-0.4239613364071827,0.4239613364071827,0.9056802886404427,324.56676900063513,408.7237215106899)" fill="none" stroke="#7b337d"></use><use xlink:href="#bbburst-shape-10" width="17.072761328953735" opacity="0.6754559125178415" transform="matrix(0.8829046414502072,0.46955233372402816,-0.46955233372402816,0.8829046414502072,492.2979651704561,-73.73572190738537)" fill="none" stroke="#f5d5e0"></use><use xlink:href="#bbburst-shape-5" width="8.895227224142209" opacity="0.8792113253319174" transform="matrix(0.9980649112504899,-0.06218064755654902,0.06218064755654902,0.9980649112504899,366.1785784741834,-53.11687199796319)" fill="#c874b2"></use><use xlink:href="#bbburst-shape-5" width="42.02197368525699" opacity="0.1388898478016315" transform="matrix(0.8174955658938463,0.5759348919312841,-0.5759348919312841,0.8174955658938463,332.8592630359444,328.419695098077)" fill="#f5d5e0"></use><use xlink:href="#bbburst-shape-10" width="30.15332411972594" opacity="0.16050045809591906" transform="matrix(0.9999494997136884,0.010049777228589147,-0.010049777228589147,0.9999494997136884,682.6186809163898,237.50072962188665)" fill="none" stroke="#c874b2"></use><use xlink:href="#bbburst-shape-10" width="29.132600298771223" opacity="0.19366933068348757" transform="matrix(0.7798277252819309,-0.6259941843832172,0.6259941843832172,0.7798277252819309,496.15331865325595,37.52541806247001)" fill="none" stroke="#c874b2"></use><use xlink:href="#bbburst-shape-5" width="20.667133964268114" opacity="0.5449028012352799" transform="matrix(0.9748652915110302,-0.22279511531250873,0.22279511531250873,0.9748652915110302,161.23635962760153,162.22340742085498)" fill="#f5d5e0"></use><use xlink:href="#bbburst-shape-10" width="21.05507866257446" opacity="0.4970754722502597" transform="matrix(0.7550811080534204,0.6556313905395461,-0.6556313905395461,0.7550811080534204,600.2597408161771,310.8339513451153)" fill="none" stroke="#f5d5e0"></use><use xlink:href="#bbburst-shape-10" width="13.624578340468782" opacity="0.7012345948649846" transform="matrix(0.9945867054270998,0.10390998694864428,-0.10390998694864428,0.9945867054270998,403.0747337018195,132.10789331674727)" fill="none" stroke="#7b337d"></use><use xlink:href="#bbburst-shape-10" width="8.6534621319137" opacity="0.9893992165395897" transform="matrix(0.8150039986844729,0.5794553322977705,-0.5794553322977705,0.8150039986844729,626.6636899146058,75.98806951098726)" fill="none" stroke="#c874b2"></use><use xlink:href="#bbburst-shape-5" width="27.39508442232233" opacity="0.18338861061854816" transform="matrix(0.7716800574209184,0.6360109189147999,-0.6360109189147999,0.7716800574209184,703.8604230363687,-279.92322613024095)" fill="#7b337d"></use><use xlink:href="#bbburst-shape-10" width="21.81590678313544" opacity="0.608950011000448" transform="matrix(0.8068251292433601,0.5907903272917011,-0.5907903272917011,0.8068251292433601,624.5850063357374,-105.12245900760601)" fill="none" stroke="#430d4b"></use><use xlink:href="#bbburst-shape-5" width="22.35106316190594" opacity="0.5845306260671833" transform="matrix(0.9764586314728367,0.2157047542874168,-0.2157047542874168,0.9764586314728367,615.1250193783012,-117.18293978060808)" fill="#430d4b"></use><use xlink:href="#bbburst-shape-10" width="36.36035652450977" opacity="0.30389674243375553" transform="matrix(0.9173356065382671,-0.398114788694253,0.398114788694253,0.9173356065382671,518.2723360851477,-67.27106010166938)" fill="none" stroke="#7b337d"></use><use xlink:href="#bbburst-shape-5" width="17.227784805541095" opacity="0.7394868586919959" transform="matrix(0.9999576316239281,0.009205159263389703,-0.009205159263389703,0.9999576316239281,338.11215714611143,102.40257031818487)" fill="#c874b2"></use><use xlink:href="#bbburst-shape-5" width="16.620538782993158" opacity="0.6663832452607276" transform="matrix(0.9567754859870193,-0.2908275595852342,0.2908275595852342,0.9567754859870193,347.8752040465556,-111.9429032883773)" fill="#c874b2"></use><use xlink:href="#bbburst-shape-10" width="25.657025922966053" opacity="0.04550975133903257" transform="matrix(0.742426672297643,0.6699273365530385,-0.6699273365530385,0.742426672297643,884.744270935947,459.5069036121486)" fill="none" stroke="#f5d5e0"></use><use xlink:href="#bbburst-shape-5" width="28.91058481292729" opacity="0.17486981283008063" transform="matrix(0.996145573754895,-0.0877154256019488,0.0877154256019488,0.996145573754895,330.39556280392867,373.5728596928884)" fill="#7b337d"></use><use xlink:href="#bbburst-shape-10" width="12.497335120933784" opacity="0.7581289481300235" transform="matrix(0.9552640194430679,-0.2957543797773314,0.2957543797773314,0.9552640194430679,384.5552416562154,17.883882327663002)" fill="none" stroke="#c874b2"></use><use xlink:href="#bbburst-shape-5" width="27.749462280452228" opacity="0.5795752554429014" transform="matrix(0.8685945989847375,-0.4955233825103949,0.4955233825103949,0.8685945989847375,25.12166421049679,152.68108721559742)" fill="#430d4b"></use><use xlink:href="#bbburst-shape-5" width="30.92879575261711" opacity="0.15523876284136584" transform="matrix(0.7828792570432968,-0.6221736645755231,0.6221736645755231,0.7828792570432968,381.6303274710318,389.1307777193852)" fill="#c874b2"></use><use xlink:href="#bbburst-shape-10" width="41.5442786349869" opacity="0.2665935297789934" transform="matrix(0.8354524855471583,0.5495626846803512,-0.5495626846803512,0.8354524855471583,310.8686404070642,208.96675116493572)" fill="none" stroke="#c874b2"></use><use xlink:href="#bbburst-shape-5" width="10.593353665744933" opacity="0.7562178003331215" transform="matrix(0.7249176537698876,-0.6888355357070085,0.6888355357070085,0.7249176537698876,39.5632798727745,187.59592689795682)" fill="#7b337d"></use><use xlink:href="#bbburst-shape-10" width="24.26161318450795" opacity="0.46312632544813614" transform="matrix(0.8796504136403756,-0.47562080461468054,0.47562080461468054,0.8796504136403756,-42.15991381286372,66.95412398952362)" fill="none" stroke="#f5d5e0"></use><use xlink:href="#bbburst-shape-5" width="14.4977753674385" opacity="0.7565335430644873" transform="matrix(0.9917638744452736,0.12807973042327786,-0.12807973042327786,0.9917638744452736,391.00899356977504,-93.50264407670392)" fill="#f5d5e0"></use><use xlink:href="#bbburst-shape-5" width="14.93008113182089" opacity="0.7435287459736131" transform="matrix(0.7118072565105522,0.7023748497625187,-0.7023748497625187,0.7118072565105522,776.1229043888945,166.79984032207602)" fill="#c874b2"></use><use xlink:href="#bbburst-shape-10" width="19.716897512702033" opacity="0.670914222770826" transform="matrix(0.7514712282069056,-0.6597658623915038,0.6597658623915038,0.7514712282069056,23.187005089769627,209.84046189874158)" fill="none" stroke="#f5d5e0"></use><use xlink:href="#bbburst-shape-10" width="32.03537263941589" opacity="0.1164934622542112" transform="matrix(0.9939111268043271,0.1101847176996553,-0.1101847176996553,0.9939111268043271,132.9699007275871,-265.66511309749205)" fill="none" stroke="#430d4b"></use><use xlink:href="#bbburst-shape-5" width="12.552018191439796" opacity="0.7036432621602098" transform="matrix(0.9987764661221814,-0.04945271196291591,0.04945271196291591,0.9987764661221814,504.6486129993829,27.31504524457347)" fill="#f5d5e0"></use><use xlink:href="#bbburst-shape-5" width="51.1920354854405" opacity="-0.08824243263937648" transform="matrix(0.8053988125612275,0.5927332897053824,-0.5927332897053824,0.8053988125612275,266.74576470618837,405.4547132247867)" fill="#c874b2"></use><use xlink:href="#bbburst-shape-10" width="28.281246358598914" opacity="0.47263455366707696" transform="matrix(0.9150954490162548,-0.40323729885730925,0.40323729885730925,0.9150954490162548,-4.410550202486661,-18.105768295458176)" fill="none" stroke="#c874b2"></use><use xlink:href="#bbburst-shape-5" width="30.203719647447883" opacity="0.4367203648373875" transform="matrix(0.7891850251406713,0.6141555145838209,-0.6141555145838209,0.7891850251406713,396.30720417431695,163.78521697109488)" fill="#c874b2"></use><use xlink:href="#bbburst-shape-5" width="32.428606524637" opacity="0.16250040619249406" transform="matrix(0.817576969390972,0.5758193285410569,-0.5758193285410569,0.817576969390972,250.50040221793924,151.1564721910575)" fill="#7b337d"></use><use xlink:href="#bbburst-shape-10" width="14.617122732402688" opacity="0.7695351936505805" transform="matrix(0.7471050081976072,0.6647060303066713,-0.6647060303066713,0.7471050081976072,686.4766201153534,196.6830036364828)" fill="none" stroke="#c874b2"></use><use xlink:href="#bbburst-shape-10" width="8.12113147527778" opacity="0.9598837551439772" transform="matrix(0.818568638924228,0.5744087250118479,-0.5744087250118479,0.818568638924228,642.1958643408236,61.4294872166908)" fill="none" stroke="#c874b2"></use><use xlink:href="#bbburst-shape-10" width="26.51663479757103" opacity="0.1840487326109974" transform="matrix(0.7518074337217795,0.6593827284670657,-0.6593827284670657,0.7518074337217795,1020.2089810231121,114.06124845111322)" fill="none" stroke="#f5d5e0"></use><use xlink:href="#bbburst-shape-10" width="22.109217612818117" opacity="0.5864803784188364" transform="matrix(0.9902908793820974,0.13901069819489542,-0.13901069819489542,0.9902908793820974,262.67456453662686,41.200269367024646)" fill="none" stroke="#c874b2"></use><use xlink:href="#bbburst-shape-5" width="28.472935972670555" opacity="0.17668624926971332" transform="matrix(0.9673422444069979,0.25347382939000235,-0.25347382939000235,0.9673422444069979,119.52696952997238,-32.64896468106275)" fill="#f5d5e0"></use><use xlink:href="#bbburst-shape-10" width="24.542873208253" opacity="0.5954442983913261" transform="matrix(0.9490650586787716,-0.31508017137715894,0.31508017137715894,0.9490650586787716,81.37428914279582,4.232383102797485)" fill="none" stroke="#7b337d"></use><use xlink:href="#bbburst-shape-5" width="14.922398447925438" opacity="0.7510273272873929" transform="matrix(0.9510440740960533,-0.3090552849034955,0.3090552849034955,0.9510440740960533,375.8246402438621,-12.768642310088183)" fill="#7b337d"></use><use xlink:href="#bbburst-shape-5" width="14.126774481638371" opacity="0.783875087624035" transform="matrix(0.9818100322815032,-0.1898659013919921,0.1898659013919921,0.9818100322815032,324.5800473062976,-88.35249251234308)" fill="#f5d5e0"></use><use xlink:href="#bbburst-shape-5" width="8.078860794357986" opacity="0.9574930580213583" transform="matrix(0.9209692826078429,-0.38963518898168725,0.38963518898168725,0.9209692826078429,236.76123908457134,14.41236341008954)" fill="#430d4b"></use><use xlink:href="#bbburst-shape-10" width="8.812285387481056" opacity="0.9540719207777122" transform="matrix(0.7247441761398419,0.6890180543000174,-0.6890180543000174,0.7247441761398419,689.4712462542037,118.73680152252086)" fill="none" stroke="#c874b2"></use><use xlink:href="#bbburst-shape-10" width="38.60093414505054" opacity="0.3345559535126682" transform="matrix(0.8637473589133192,0.5039250936104152,-0.5039250936104152,0.8637473589133192,797.5592805643568,255.59713116409193)" fill="none" stroke="#f5d5e0"></use><use xlink:href="#bbburst-shape-10" width="35.37242292972854" opacity="0.26169975927285505" transform="matrix(0.8550240994382933,0.5185882657559228,-0.5185882657559228,0.8550240994382933,428.42820923412046,337.82003363320814)" fill="none" stroke="#7b337d"></use><use xlink:href="#bbburst-shape-10" width="21.018526659032815" opacity="0.5035899201321644" transform="matrix(0.9693698379358211,-0.24560561333218756,0.24560561333218756,0.9693698379358211,514.8134443767999,22.782813205614502)" fill="none" stroke="#7b337d"></use><use xlink:href="#bbburst-shape-5" width="18.79392397473547" opacity="0.6945585916290651" transform="matrix(0.9999651268140821,0.008351356518350382,-0.008351356518350382,0.9999651268140821,268.1201065395465,55.25721053188198)" fill="#c874b2"></use><use xlink:href="#bbburst-shape-5" width="24.158044979733106" opacity="0.4369231765201883" transform="matrix(0.8262238715369816,0.5633419158046393,-0.5633419158046393,0.8262238715369816,412.73982799633075,214.8574136183003)" fill="#c874b2"></use><use xlink:href="#bbburst-shape-10" width="11.207388552486297" opacity="0.842463937764551" transform="matrix(0.8905927477572899,0.45480166846892756,-0.45480166846892756,0.8905927477572899,582.0558323415398,111.92000467294525)" fill="none" stroke="#430d4b"></use><use xlink:href="#bbburst-shape-5" width="25.757473647931096" opacity="0.1513992201127693" transform="matrix(0.9747726344048686,0.22320015953263195,-0.22320015953263195,0.9747726344048686,353.53266018364394,368.6694664062401)" fill="#7b337d"></use><use xlink:href="#bbburst-shape-10" width="19.403358492740402" opacity="0.6928474167226837" transform="matrix(0.8618362898381656,0.5071865628326379,-0.5071865628326379,0.8618362898381656,620.5920758591715,-85.39122357429329)" fill="none" stroke="#430d4b"></use><use xlink:href="#bbburst-shape-5" width="13.634987880270298" opacity="0.8319075310147911" transform="matrix(0.816799325246183,-0.5769218857673716,0.5769218857673716,0.816799325246183,207.6431858913685,15.67180992951296)" fill="#f5d5e0"></use><use xlink:href="#bbburst-shape-5" width="12.464815231796898" opacity="0.8231168110279763" transform="matrix(0.904843030968014,-0.42574533386593644,0.42574533386593644,0.904843030968014,171.43220373870525,100.4305325764746)" fill="#f5d5e0"></use><use xlink:href="#bbburst-shape-5" width="8.117801311683305" opacity="0.861543658416127" transform="matrix(0.9407889034397611,-0.3389929780461712,0.3389929780461712,0.9407889034397611,313.36352315941224,-8.050111435141957)" fill="#c874b2"></use><use xlink:href="#bbburst-shape-10" width="36.62008945875923" opacity="0.27052224266843516" transform="matrix(0.9189490926257063,0.39437617215342896,-0.39437617215342896,0.9189490926257063,812.2817866502979,-159.5250966066203)" fill="none" stroke="#c874b2"></use><use xlink:href="#bbburst-shape-10" width="19.696619989828356" opacity="0.5574072798635638" transform="matrix(0.861374616407579,0.5079702453970076,-0.5079702453970076,0.861374616407579,780.6397312360856,121.8314577300668)" fill="none" stroke="#c874b2"></use><use xlink:href="#bbburst-shape-5" width="17.99042681905157" opacity="0.7222028056096681" transform="matrix(0.9962379626477597,-0.08665980486616075,0.08665980486616075,0.9962379626477597,341.06125048122516,-121.78291127711822)" fill="#f5d5e0"></use><use xlink:href="#bbburst-shape-5" width="19.015483743205134" opacity="0.6006389725283121" transform="matrix(0.9976235158655826,0.06890080254970699,-0.06890080254970699,0.9976235158655826,520.686065517164,147.83387853306374)" fill="#c874b2"></use><use xlink:href="#bbburst-shape-10" width="34.295401474319" opacity="0.3486690857755238" transform="matrix(0.9379128693456782,-0.34687094071968144,0.34687094071968144,0.9379128693456782,-15.842219002371536,-102.56003724932589)" fill="none" stroke="#c874b2"></use><use xlink:href="#bbburst-shape-5" width="10.292518665954521" opacity="0.9120125158979155" transform="matrix(0.9897448926156595,-0.14284623740657898,0.14284623740657898,0.9897448926156595,371.96872215164336,-15.113440214798175)" fill="#f5d5e0"></use><use xlink:href="#bbburst-shape-10" width="21.68945123174115" opacity="0.44413778701590856" transform="matrix(0.8912568751235114,0.45349882309116696,-0.45349882309116696,0.8912568751235114,800.648688938999,-62.25294275322511)" fill="none" stroke="#f5d5e0"></use><use xlink:href="#bbburst-shape-5" width="7.908371328412941" opacity="0.8873351658960601" transform="matrix(0.8487544126754195,-0.5287872416804359,0.5287872416804359,0.8487544126754195,211.48609169523024,19.279706026860822)" fill="#c874b2"></use><use xlink:href="#bbburst-shape-10" width="16.069573094316482" opacity="0.6815822103053559" transform="matrix(0.7806980316758967,0.6249084599662422,-0.6249084599662422,0.7806980316758967,664.2172240415737,224.50989805828237)" fill="none" stroke="#f5d5e0"></use><use xlink:href="#bbburst-shape-5" width="17.727435281239487" opacity="0.5497115870069456" transform="matrix(0.9443046480526316,-0.329072532530741,0.329072532530741,0.9443046480526316,202.55926811506137,-169.12253854386933)" fill="#f5d5e0"></use><use xlink:href="#bbburst-shape-5" width="26.16028741675828" opacity="0.44509264840794405" transform="matrix(0.8151256023659308,0.5792842586913427,-0.5792842586913427,0.8151256023659308,442.91840216583023,-108.62094744630147)" fill="#7b337d"></use><use xlink:href="#bbburst-shape-5" width="32.66015562963824" opacity="0.3865605733144648" transform="matrix(0.7144135077354822,-0.6997237597545792,0.6997237597545792,0.7144135077354822,382.57887475983955,93.21958916431225)" fill="#430d4b"></use><use xlink:href="#bbburst-shape-5" width="32.314708927184576" opacity="0.17756904231414172" transform="matrix(0.9311359371017949,-0.36467227292126614,0.36467227292126614,0.9311359371017949,-103.40842321383568,-106.80065213844699)" fill="#c874b2"></use><use xlink:href="#bbburst-shape-10" width="21.64390438579828" opacity="0.4506609899950069" transform="matrix(0.9979443923252845,-0.06408580050618568,0.06408580050618568,0.9979443923252845,458.8098487884181,229.63352555415116)" fill="none" stroke="#c874b2"></use><use xlink:href="#bbburst-shape-5" width="35.037744076833945" opacity="0.021981745095266403" transform="matrix(0.802468764557434,-0.5966941275977715,0.5966941275977715,0.802468764557434,506.8628858215592,-164.273929180889)" fill="#f5d5e0"></use><use xlink:href="#bbburst-shape-10" width="26.91567041006696" opacity="0.5621309103598874" transform="matrix(0.971076482440065,-0.23876864377851242,0.23876864377851242,0.971076482440065,186.43166874810876,-151.9560402696657)" fill="none" stroke="#c874b2"></use><use xlink:href="#bbburst-shape-10" width="18.925172788254763" opacity="0.6554198997505851" transform="matrix(0.9186213952362161,0.3951388771233067,-0.3951388771233067,0.9186213952362161,688.9246004220045,96.38820051831868)" fill="none" stroke="#f5d5e0"></use><use xlink:href="#bbburst-shape-5" width="29.153755830207277" opacity="0.46192047151938187" transform="matrix(0.7524877736847534,-0.6586062180506371,0.6586062180506371,0.7524877736847534,141.34648046010517,350.2278181369282)" fill="#f5d5e0"></use><use xlink:href="#bbburst-shape-5" width="30.06107923675744" opacity="0.3221434058229399" transform="matrix(0.7561085041369235,-0.6544462773763969,0.6544462773763969,0.7561085041369235,428.6853192442956,151.50857361001988)" fill="#f5d5e0"></use><use xlink:href="#bbburst-shape-5" width="8.440474304584043" opacity="0.9541639537152702" transform="matrix(0.9128035887944642,-0.4083988348219749,0.4083988348219749,0.9128035887944642,212.16696873453628,37.05482836122485)" fill="#c874b2"></use><use xlink:href="#bbburst-shape-10" width="25.061611314002356" opacity="0.5799185845839969" transform="matrix(0.8631464097803017,-0.5049537357851466,0.5049537357851466,0.8631464097803017,246.35413024004103,240.61262513517892)" fill="none" stroke="#7b337d"></use><use xlink:href="#bbburst-shape-10" width="8.90199870057865" opacity="0.8457843833818468" transform="matrix(0.9999905159996006,-0.00435521651039842,0.00435521651039842,0.9999905159996006,442.2310388211992,49.73289173406664)" fill="none" stroke="#c874b2"></use><use xlink:href="#bbburst-shape-5" width="10.148654181811263" opacity="0.9201219715978529" transform="matrix(0.7429399338709173,-0.6693580915025059,0.6693580915025059,0.7429399338709173,164.31962397116718,109.05990380394394)" fill="#430d4b"></use><use xlink:href="#bbburst-shape-10" width="17.51957163455907" opacity="0.615249670209315" transform="matrix(0.9923514063798208,-0.1234450738425468,0.1234450738425468,0.9923514063798208,297.5855135749037,171.50352755941287)" fill="none" stroke="#f5d5e0"></use><use xlink:href="#bbburst-shape-5" width="14.493317180941151" opacity="0.7599595531619422" transform="matrix(0.941553610805406,0.33686317397320525,-0.33686317397320525,0.941553610805406,595.0074536264763,-63.723634213872685)" fill="#7b337d"></use><use xlink:href="#bbburst-shape-10" width="28.299996243776548" opacity="0.46512201181404256" transform="matrix(0.8524219072097269,-0.5228545611438535,0.5228545611438535,0.8524219072097269,326.0762780030209,256.8049631259324)" fill="none" stroke="#c874b2"></use><use xlink:href="#bbburst-shape-10" width="26.724435762269437" opacity="0.495347795677352" transform="matrix(0.7281508543963764,-0.6854169046951111,0.6854169046951111,0.7281508543963764,140.86305287071696,-107.84138314458409)" fill="none" stroke="#f5d5e0"></use><use xlink:href="#bbburst-shape-10" width="12.382784597145127" opacity="0.7522327282407318" transform="matrix(0.9208907179011603,0.38982083792876643,-0.38982083792876643,0.9208907179011603,547.2364254377335,140.6853409660248)" fill="none" stroke="#430d4b"></use><use xlink:href="#bbburst-shape-10" width="36.30077629906177" opacity="0.4347110433357154" transform="matrix(0.7158015026992154,-0.6983038083338405,0.6983038083338405,0.7158015026992154,300.8848562447479,-39.12587430940019)" fill="none" stroke="#c874b2"></use><use xlink:href="#bbburst-shape-10" width="29.6210098571933" opacity="0.4355622206745414" transform="matrix(0.9988613256573976,-0.04770798786310734,0.04770798786310734,0.9988613256573976,610.149476798311,71.6293284520761)" fill="none" stroke="#7b337d"></use><use xlink:href="#bbburst-shape-10" width="35.49380450660519" opacity="0.3300105986969696" transform="matrix(0.8792657490367068,0.4763315468987109,-0.4763315468987109,0.8792657490367068,276.96325615787833,-6.1614537074754026)" fill="none" stroke="#f5d5e0"></use><use xlink:href="#bbburst-shape-10" width="18.19306346109425" opacity="0.6619046363674901" transform="matrix(0.9652642915068999,-0.2612754246799394,0.2612754246799394,0.9652642915068999,236.47422866989763,-127.33927682480174)" fill="none" stroke="#430d4b"></use><use xlink:href="#bbburst-shape-5" width="11.852160171069242" opacity="0.8056613787131718" transform="matrix(0.8698614076595258,0.4932961904014547,-0.4932961904014547,0.8698614076595258,665.0767976168052,0.8456469649508449)" fill="#c874b2"></use><use xlink:href="#bbburst-shape-5" width="31.623680547748698" opacity="-0.0963959338075655" transform="matrix(0.7609959935105861,0.6487565782794315,-0.6487565782794315,0.7609959935105861,991.4211752555331,-268.37882059822687)" fill="#c874b2"></use><use xlink:href="#bbburst-shape-10" width="34.06521614652432" opacity="0.06351897933742567" transform="matrix(0.7216465701309197,-0.6922616758266195,0.6922616758266195,0.7216465701309197,349.27483561762585,-224.32034713031686)" fill="none" stroke="#7b337d"></use><use xlink:href="#bbburst-shape-5" width="16.723072581594025" opacity="0.6745087441482791" transform="matrix(0.77360233837343,-0.633671383339315,0.633671383339315,0.77360233837343,285.1502686384685,75.77178358547837)" fill="#f5d5e0"></use><use xlink:href="#bbburst-shape-10" width="11.84716385417092" opacity="0.7568093403035597" transform="matrix(0.9966236013022037,-0.08210601273613335,0.08210601273613335,0.9966236013022037,435.93481621126,81.83047621284913)" fill="none" stroke="#f5d5e0"></use><use xlink:href="#bbburst-shape-10" width="21.191333224012663" opacity="0.5194655083415773" transform="matrix(0.9155588059153162,-0.4021841281190996,0.4021841281190996,0.9155588059153162,354.55890703646185,-138.3184945208521)" fill="none" stroke="#7b337d"></use><use xlink:href="#bbburst-shape-10" width="25.938077692334204" opacity="0.3285985767246259" transform="matrix(0.8642489208471782,0.5030644121924029,-0.5030644121924029,0.8642489208471782,662.2649820126634,341.14145345590646)" fill="none" stroke="#f5d5e0"></use><use xlink:href="#bbburst-shape-5" width="11.870495094956011" opacity="0.6728958016712931" transform="matrix(0.9524845805477621,-0.3045868083465758,0.3045868083465758,0.9524845805477621,373.9529705337027,-85.84747150092937)" fill="#c874b2"></use><use xlink:href="#bbburst-shape-10" width="8.817822512831343" opacity="0.8962386801200052" transform="matrix(0.9719494739191415,0.23518975349343768,-0.23518975349343768,0.9719494739191415,506.5628452135378,53.75956090020384)" fill="none" stroke="#f5d5e0"></use><use xlink:href="#bbburst-shape-5" width="12.757469551714815" opacity="0.8094854875473814" transform="matrix(0.9658855527674634,0.2589693011827692,-0.2589693011827692,0.9658855527674634,477.93122086577216,-71.49160756520564)" fill="#c874b2"></use><use xlink:href="#bbburst-shape-5" width="12.415922612624392" opacity="0.8164392964788572" transform="matrix(0.8931444502692202,0.44976993113512215,-0.44976993113512215,0.8931444502692202,645.4120348547766,82.08355866915952)" fill="#430d4b"></use><use xlink:href="#bbburst-shape-5" width="24.597650790228542" opacity="0.49645336076306845" transform="matrix(0.9859831859433589,-0.16684470934669696,0.16684470934669696,0.9859831859433589,124.57463889503366,-105.0777292668543)" fill="#c874b2"></use><use xlink:href="#bbburst-shape-5" width="9.158358565621837" opacity="0.8986719563279697" transform="matrix(0.9634913938917781,0.2677393021139755,-0.2677393021139755,0.9634913938917781,458.22069327732646,3.2688986736303036)" fill="#f5d5e0"></use><use xlink:href="#bbburst-shape-5" width="33.96971347489618" opacity="0.05024252032495202" transform="matrix(0.9853328566582555,0.17064337546380617,-0.17064337546380617,0.9853328566582555,215.54695452851075,359.3095072239984)" fill="#f5d5e0"></use><use xlink:href="#bbburst-shape-10" width="10.672736904639402" opacity="0.8962419338009985" transform="matrix(0.9497298763059578,-0.3130705384603763,0.3130705384603763,0.9497298763059578,260.0057751935042,67.45158346965138)" fill="none" stroke="#f5d5e0"></use><use xlink:href="#bbburst-shape-5" width="19.799868411333406" opacity="0.6966812709256835" transform="matrix(0.9553119050411724,0.295599668617213,-0.295599668617213,0.9553119050411724,372.4757821113404,22.088958998424573)" fill="#430d4b"></use><use xlink:href="#bbburst-shape-10" width="36.53888501086419" opacity="0.28874396173248806" transform="matrix(0.9427715013796556,-0.333439494041048,0.333439494041048,0.9427715013796556,534.8403682329426,173.7785367723319)" fill="none" stroke="#c874b2"></use><use xlink:href="#bbburst-shape-10" width="23.538619426910014" opacity="0.2923072695801242" transform="matrix(0.9688143498699889,-0.2477877226296546,0.2477877226296546,0.9688143498699889,300.3860362388483,333.66556880936395)" fill="none" stroke="#c874b2"></use><use xlink:href="#bbburst-shape-5" width="24.76233121935301" opacity="0.1343518784736596" transform="matrix(0.9999761934212533,-0.006900187732238131,0.006900187732238131,0.9999761934212533,244.43111784743522,-363.25431393143737)" fill="#f5d5e0"></use><use xlink:href="#bbburst-shape-5" width="35.01686031417179" opacity="0.2755504677660099" transform="matrix(0.7797667714942071,0.6260701095512394,-0.6260701095512394,0.7797667714942071,791.829651136265,363.89947547673523)" fill="#f5d5e0"></use><use xlink:href="#bbburst-shape-10" width="9.053735259527796" opacity="0.9270721816999689" transform="matrix(0.9195771965520998,0.3929093783321809,-0.3929093783321809,0.9195771965520998,563.9057901979434,-0.5622963793263693)" fill="none" stroke="#c874b2"></use><use xlink:href="#bbburst-shape-10" width="28.87261411741731" opacity="0.29324579739510925" transform="matrix(0.7540613519479059,-0.6568039871213454,0.6568039871213454,0.7540613519479059,-110.57802275646549,-104.26061886632766)" fill="none" stroke="#f5d5e0"></use><use xlink:href="#bbburst-shape-10" width="15.69822768943005" opacity="0.67628662385114" transform="matrix(0.8604041279002542,0.5096123396192472,-0.5096123396192472,0.8604041279002542,704.5946925575281,150.13950799788842)" fill="none" stroke="#c874b2"></use><use xlink:href="#bbburst-shape-5" width="31.915752093942146" opacity="0.02202603701461414" transform="matrix(0.7879442888483186,-0.6157465368731825,0.6157465368731825,0.7879442888483186,-111.72095548022114,-265.55355595522747)" fill="#c874b2"></use><use xlink:href="#bbburst-shape-5" width="14.46431603070226" opacity="0.7912139694060596" transform="matrix(0.9883689480314759,-0.15207505570327334,0.15207505570327334,0.9883689480314759,260.1958322451336,-54.81432316504265)" fill="#7b337d"></use><use xlink:href="#bbburst-shape-5" width="16.497436950131423" opacity="0.7354411569608921" transform="matrix(0.7292787200037629,-0.6842167409159712,0.6842167409159712,0.7292787200037629,217.91415044322622,45.78342861583775)" fill="#f5d5e0"></use><use xlink:href="#bbburst-shape-10" width="38.165003623925365" opacity="0.14726685811942086" transform="matrix(0.7781527153841387,0.6280751161607119,-0.6280751161607119,0.7781527153841387,911.793694607765,-190.4474996092875)" fill="none" stroke="#f5d5e0"></use><use xlink:href="#bbburst-shape-10" width="11.881228518509891" opacity="0.8418615527596811" transform="matrix(0.9472011140296005,-0.3206400623457458,0.3206400623457458,0.9472011140296005,201.50701928474106,-6.802138695219014)" fill="none" stroke="#7b337d"></use><use xlink:href="#bbburst-shape-10" width="34.18418853937407" opacity="0.310937314264662" transform="matrix(0.9451992356567177,-0.326494111606866,0.326494111606866,0.9451992356567177,442.381512704086,-218.2157270621462)" fill="none" stroke="#f5d5e0"></use><use xlink:href="#bbburst-shape-10" width="27.72382099474787" opacity="0.2824046115433343" transform="matrix(0.9410046050048974,0.33839375490628826,-0.33839375490628826,0.9410046050048974,646.9933065248089,-278.9699539337072)" fill="none" stroke="#f5d5e0"></use><use xlink:href="#bbburst-shape-5" width="39.49084086906636" opacity="0.21270866732791405" transform="matrix(0.8768573632020364,-0.4807506262069474,0.4807506262069474,0.8768573632020364,-11.017665609777964,-232.71511775381424)" fill="#f5d5e0"></use><use xlink:href="#bbburst-shape-10" width="21.08453779677946" opacity="0.5871597923351024" transform="matrix(0.7191311648120354,-0.6948743539634235,0.6948743539634235,0.7191311648120354,-23.800843547864815,-4.403318312175315)" fill="none" stroke="#c874b2"></use><use xlink:href="#bbburst-shape-5" width="35.823180695754615" opacity="-0.09924883567409148" transform="matrix(0.8982604019696152,0.4394635937747123,-0.4394635937747123,0.8982604019696152,205.20140055019996,-312.1741187276518)" fill="#c874b2"></use><use xlink:href="#bbburst-shape-5" width="7.01438541999136" opacity="0.9040005616211124" transform="matrix(0.9304271311834339,-0.3664769481942418,0.3664769481942418,0.9304271311834339,232.16053753195376,-10.163277660984477)" fill="#c874b2"></use><use xlink:href="#bbburst-shape-10" width="35.13135790809058" opacity="0.34260996063062765" transform="matrix(0.8591084757571285,0.5117935393127422,-0.5117935393127422,0.8591084757571285,521.8307344469576,335.3187832304067)" fill="none" stroke="#c874b2"></use><use xlink:href="#bbburst-shape-5" width="9.567204163579829" opacity="0.7898773149443999" transform="matrix(0.746162363228198,-0.6657640180286937,0.6657640180286937,0.746162363228198,177.86453087304506,186.3386090245209)" fill="#c874b2"></use><use xlink:href="#bbburst-shape-5" width="9.905901279597451" opacity="0.9329597230811092" transform="matrix(0.9438061162734975,0.3304996443034958,-0.3304996443034958,0.9438061162734975,503.8638082547272,2.1255655644317244)" fill="#430d4b"></use><use xlink:href="#bbburst-shape-10" width="18.054686098357013" opacity="0.5634623032578099" transform="matrix(0.860214682497252,-0.5099320543132703,0.5099320543132703,0.860214682497252,340.99526778504617,184.05655776659302)" fill="none" stroke="#7b337d"></use><use xlink:href="#bbburst-shape-5" width="32.67075441917142" opacity="0.049130437723209464" transform="matrix(0.7797964721115527,0.6260331158032908,-0.6260331158032908,0.7797964721115527,273.8212661616791,-147.31493071013293)" fill="#f5d5e0"></use><use xlink:href="#bbburst-shape-5" width="26.69909511006753" opacity="0.17691477167152037" transform="matrix(0.7351275233505182,-0.6779288490782298,0.6779288490782298,0.7351275233505182,84.55353305579382,-253.7826749783232)" fill="#f5d5e0"></use><use xlink:href="#bbburst-shape-10" width="18.101410333513734" opacity="0.6037965956453089" transform="matrix(0.8964055302349828,0.44323484222716436,-0.44323484222716436,0.8964055302349828,482.05917970230684,192.98225908060084)" fill="none" stroke="#7b337d"></use><use xlink:href="#bbburst-shape-10" width="12.861567982191447" opacity="0.8392597743998288" transform="matrix(0.9398250108265082,-0.3416561854042068,0.3416561854042068,0.9398250108265082,185.00472580549393,23.740886713020814)" fill="none" stroke="#f5d5e0"></use><use xlink:href="#bbburst-shape-10" width="31.016415739798813" opacity="0.31100678202025156" transform="matrix(0.9644529616471736,0.2642545832525814,-0.2642545832525814,0.9644529616471736,369.88931014197806,-275.40168788935074)" fill="none" stroke="#c874b2"></use><use xlink:href="#bbburst-shape-5" width="29.877290036541325" opacity="0.4372403835829408" transform="matrix(0.8328880017692186,0.5534415746118808,-0.5534415746118808,0.8328880017692186,708.2061997363654,-174.39611897112113)" fill="#f5d5e0"></use><use xlink:href="#bbburst-shape-5" width="13.495351474785036" opacity="0.6996661084204013" transform="matrix(0.889690083106272,-0.4565649526872983,0.4565649526872983,0.889690083106272,81.8117401140781,8.732955235208863)" fill="#430d4b"></use></svg>